<mxfile host="app.diagrams.net" modified="2023-09-22T16:13:01.573Z" agent="Mozilla/5.0 (Macintosh; Intel Mac OS X 10.15; rv:109.0) Gecko/20100101 Firefox/118.0" etag="2SMdIshRyzbwRQ-uooau" version="21.6.9" type="device">
  <diagram name="Seite-1" id="6rdLMcU7qFHCMdSQ0RmP">
    <mxGraphModel dx="1026" dy="686" grid="1" gridSize="10" guides="1" tooltips="1" connect="1" arrows="1" fold="1" page="1" pageScale="1" pageWidth="827" pageHeight="1169" math="0" shadow="0">
      <root>
        <mxCell id="0" />
        <mxCell id="1" parent="0" />
        <mxCell id="MToOQenidi22LgT-aLaP-28" style="edgeStyle=orthogonalEdgeStyle;rounded=0;orthogonalLoop=1;jettySize=auto;html=1;entryX=0;entryY=0.5;entryDx=0;entryDy=0;" parent="1" source="rEsuLK7hwyCycrSi-2LT-4" target="MToOQenidi22LgT-aLaP-27" edge="1">
          <mxGeometry relative="1" as="geometry" />
        </mxCell>
        <mxCell id="rEsuLK7hwyCycrSi-2LT-4" value="Email und Passwort Eingegeben" style="rounded=1;whiteSpace=wrap;html=1;labelBackgroundColor=none;" parent="1" vertex="1">
          <mxGeometry x="120" y="150" width="110" height="50" as="geometry" />
        </mxCell>
        <mxCell id="rEsuLK7hwyCycrSi-2LT-5" value="Nutzer" style="rounded=0;whiteSpace=wrap;html=1;labelBackgroundColor=none;" parent="1" vertex="1">
          <mxGeometry y="150" width="100" height="50" as="geometry" />
        </mxCell>
        <mxCell id="rEsuLK7hwyCycrSi-2LT-18" style="edgeStyle=orthogonalEdgeStyle;rounded=0;orthogonalLoop=1;jettySize=auto;html=1;entryX=0;entryY=0.5;entryDx=0;entryDy=0;labelBackgroundColor=none;fontColor=default;exitX=1;exitY=0.5;exitDx=0;exitDy=0;" parent="1" source="MToOQenidi22LgT-aLaP-12" target="rEsuLK7hwyCycrSi-2LT-17" edge="1">
          <mxGeometry relative="1" as="geometry">
            <mxPoint x="510" y="170" as="sourcePoint" />
          </mxGeometry>
        </mxCell>
        <mxCell id="rEsuLK7hwyCycrSi-2LT-30" style="edgeStyle=orthogonalEdgeStyle;rounded=0;orthogonalLoop=1;jettySize=auto;html=1;labelBackgroundColor=none;fontColor=default;" parent="1" source="rEsuLK7hwyCycrSi-2LT-17" target="rEsuLK7hwyCycrSi-2LT-20" edge="1">
          <mxGeometry relative="1" as="geometry" />
        </mxCell>
        <mxCell id="rEsuLK7hwyCycrSi-2LT-17" value="nutzer mit email suchen" style="rounded=1;whiteSpace=wrap;html=1;labelBackgroundColor=none;" parent="1" vertex="1">
          <mxGeometry x="640" y="145" width="120" height="60" as="geometry" />
        </mxCell>
        <mxCell id="rEsuLK7hwyCycrSi-2LT-24" style="edgeStyle=orthogonalEdgeStyle;rounded=0;orthogonalLoop=1;jettySize=auto;html=1;entryX=1;entryY=0.5;entryDx=0;entryDy=0;labelBackgroundColor=none;fontColor=default;" parent="1" source="rEsuLK7hwyCycrSi-2LT-20" target="rEsuLK7hwyCycrSi-2LT-25" edge="1">
          <mxGeometry relative="1" as="geometry">
            <mxPoint x="530" y="440" as="targetPoint" />
          </mxGeometry>
        </mxCell>
        <mxCell id="MToOQenidi22LgT-aLaP-43" style="edgeStyle=orthogonalEdgeStyle;rounded=0;orthogonalLoop=1;jettySize=auto;html=1;" parent="1" source="rEsuLK7hwyCycrSi-2LT-20" target="MToOQenidi22LgT-aLaP-2" edge="1">
          <mxGeometry relative="1" as="geometry" />
        </mxCell>
        <mxCell id="rEsuLK7hwyCycrSi-2LT-20" value="" style="rhombus;whiteSpace=wrap;html=1;labelBackgroundColor=none;" parent="1" vertex="1">
          <mxGeometry x="660" y="270" width="80" height="80" as="geometry" />
        </mxCell>
        <mxCell id="rEsuLK7hwyCycrSi-2LT-22" value="[Nutzer gefunden]" style="text;html=1;strokeColor=none;fillColor=none;align=center;verticalAlign=middle;whiteSpace=wrap;rounded=0;labelBackgroundColor=none;" parent="1" vertex="1">
          <mxGeometry x="570" y="270" width="60" height="30" as="geometry" />
        </mxCell>
        <mxCell id="MToOQenidi22LgT-aLaP-15" style="edgeStyle=orthogonalEdgeStyle;rounded=0;orthogonalLoop=1;jettySize=auto;html=1;entryX=1;entryY=0.5;entryDx=0;entryDy=0;" parent="1" source="rEsuLK7hwyCycrSi-2LT-25" target="MToOQenidi22LgT-aLaP-14" edge="1">
          <mxGeometry relative="1" as="geometry">
            <mxPoint x="310" y="290" as="targetPoint" />
          </mxGeometry>
        </mxCell>
        <mxCell id="rEsuLK7hwyCycrSi-2LT-25" value="hash prÃ¼fen" style="rounded=1;whiteSpace=wrap;html=1;labelBackgroundColor=none;" parent="1" vertex="1">
          <mxGeometry x="410" y="280" width="120" height="60" as="geometry" />
        </mxCell>
        <mxCell id="rEsuLK7hwyCycrSi-2LT-32" value="[Nutzer nicht Gefunden]" style="text;html=1;strokeColor=none;fillColor=none;align=center;verticalAlign=middle;whiteSpace=wrap;rounded=0;labelBackgroundColor=none;" parent="1" vertex="1">
          <mxGeometry x="700" y="380" width="100" height="30" as="geometry" />
        </mxCell>
        <mxCell id="rEsuLK7hwyCycrSi-2LT-39" value="login gescheitert" style="rounded=1;whiteSpace=wrap;html=1;labelBackgroundColor=none;" parent="1" vertex="1">
          <mxGeometry x="180" y="720" width="120" height="60" as="geometry" />
        </mxCell>
        <mxCell id="MToOQenidi22LgT-aLaP-24" style="edgeStyle=orthogonalEdgeStyle;rounded=0;orthogonalLoop=1;jettySize=auto;html=1;entryX=0.5;entryY=0;entryDx=0;entryDy=0;entryPerimeter=0;" parent="1" source="rEsuLK7hwyCycrSi-2LT-45" edge="1">
          <mxGeometry relative="1" as="geometry">
            <mxPoint x="90" y="470" as="targetPoint" />
          </mxGeometry>
        </mxCell>
        <mxCell id="sNGj3hV3pmm6zrYYgMPP-7" value="" style="edgeStyle=orthogonalEdgeStyle;rounded=0;orthogonalLoop=1;jettySize=auto;html=1;" parent="1" source="rEsuLK7hwyCycrSi-2LT-45" target="sNGj3hV3pmm6zrYYgMPP-2" edge="1">
          <mxGeometry relative="1" as="geometry" />
        </mxCell>
        <mxCell id="rEsuLK7hwyCycrSi-2LT-45" value="&amp;nbsp;login erfolgreich&amp;nbsp;" style="rounded=1;whiteSpace=wrap;html=1;labelBackgroundColor=none;" parent="1" vertex="1">
          <mxGeometry x="30" y="365" width="120" height="60" as="geometry" />
        </mxCell>
        <mxCell id="MToOQenidi22LgT-aLaP-25" style="edgeStyle=orthogonalEdgeStyle;rounded=0;orthogonalLoop=1;jettySize=auto;html=1;entryX=0.5;entryY=0;entryDx=0;entryDy=0;" parent="1" source="rEsuLK7hwyCycrSi-2LT-50" target="rEsuLK7hwyCycrSi-2LT-4" edge="1">
          <mxGeometry relative="1" as="geometry" />
        </mxCell>
        <mxCell id="rEsuLK7hwyCycrSi-2LT-50" value="" style="ellipse;html=1;shape=startState;labelBackgroundColor=none;fillColor=#000000;" parent="1" vertex="1">
          <mxGeometry x="160" y="70" width="30" height="30" as="geometry" />
        </mxCell>
        <mxCell id="MToOQenidi22LgT-aLaP-39" style="edgeStyle=orthogonalEdgeStyle;rounded=0;orthogonalLoop=1;jettySize=auto;html=1;exitX=0.25;exitY=1;exitDx=0;exitDy=0;entryX=1;entryY=0.5;entryDx=0;entryDy=0;" parent="1" source="MToOQenidi22LgT-aLaP-2" target="MToOQenidi22LgT-aLaP-37" edge="1">
          <mxGeometry relative="1" as="geometry" />
        </mxCell>
        <mxCell id="MToOQenidi22LgT-aLaP-57" style="edgeStyle=orthogonalEdgeStyle;rounded=0;orthogonalLoop=1;jettySize=auto;html=1;entryX=0.5;entryY=0;entryDx=0;entryDy=0;exitX=0.75;exitY=1;exitDx=0;exitDy=0;" parent="1" source="MToOQenidi22LgT-aLaP-2" target="MToOQenidi22LgT-aLaP-56" edge="1">
          <mxGeometry relative="1" as="geometry" />
        </mxCell>
        <mxCell id="MToOQenidi22LgT-aLaP-2" value="" style="rounded=0;whiteSpace=wrap;html=1;fillColor=#000000;rotation=0;" parent="1" vertex="1">
          <mxGeometry x="640" y="460" width="120" height="20" as="geometry" />
        </mxCell>
        <mxCell id="MToOQenidi22LgT-aLaP-46" style="edgeStyle=orthogonalEdgeStyle;rounded=0;orthogonalLoop=1;jettySize=auto;html=1;entryX=1;entryY=0.5;entryDx=0;entryDy=0;" parent="1" source="MToOQenidi22LgT-aLaP-6" target="MToOQenidi22LgT-aLaP-11" edge="1">
          <mxGeometry relative="1" as="geometry" />
        </mxCell>
        <mxCell id="MToOQenidi22LgT-aLaP-6" value="Fehlversuch Anzahl addieren" style="rounded=1;whiteSpace=wrap;html=1;" parent="1" vertex="1">
          <mxGeometry x="670" y="720" width="120" height="60" as="geometry" />
        </mxCell>
        <mxCell id="MToOQenidi22LgT-aLaP-45" style="edgeStyle=orthogonalEdgeStyle;rounded=0;orthogonalLoop=1;jettySize=auto;html=1;entryX=0.5;entryY=0;entryDx=0;entryDy=0;exitX=0.5;exitY=1;exitDx=0;exitDy=0;" parent="1" source="MToOQenidi22LgT-aLaP-11" target="MToOQenidi22LgT-aLaP-44" edge="1">
          <mxGeometry relative="1" as="geometry" />
        </mxCell>
        <mxCell id="MToOQenidi22LgT-aLaP-48" style="edgeStyle=orthogonalEdgeStyle;rounded=0;orthogonalLoop=1;jettySize=auto;html=1;entryX=0.5;entryY=0;entryDx=0;entryDy=0;" parent="1" source="MToOQenidi22LgT-aLaP-11" target="MToOQenidi22LgT-aLaP-49" edge="1">
          <mxGeometry relative="1" as="geometry">
            <mxPoint x="414" y="865" as="targetPoint" />
          </mxGeometry>
        </mxCell>
        <mxCell id="MToOQenidi22LgT-aLaP-11" value="" style="rhombus;whiteSpace=wrap;html=1;" parent="1" vertex="1">
          <mxGeometry x="500" y="710" width="80" height="80" as="geometry" />
        </mxCell>
        <mxCell id="MToOQenidi22LgT-aLaP-32" style="edgeStyle=orthogonalEdgeStyle;rounded=0;orthogonalLoop=1;jettySize=auto;html=1;entryX=0.5;entryY=1;entryDx=0;entryDy=0;entryPerimeter=0;" parent="1" source="MToOQenidi22LgT-aLaP-12" target="MToOQenidi22LgT-aLaP-33" edge="1">
          <mxGeometry relative="1" as="geometry">
            <mxPoint x="500" y="60" as="targetPoint" />
          </mxGeometry>
        </mxCell>
        <mxCell id="MToOQenidi22LgT-aLaP-12" value="" style="rhombus;whiteSpace=wrap;html=1;" parent="1" vertex="1">
          <mxGeometry x="460" y="135" width="80" height="80" as="geometry" />
        </mxCell>
        <mxCell id="MToOQenidi22LgT-aLaP-21" style="edgeStyle=orthogonalEdgeStyle;rounded=0;orthogonalLoop=1;jettySize=auto;html=1;entryX=0.5;entryY=0;entryDx=0;entryDy=0;" parent="1" source="MToOQenidi22LgT-aLaP-14" target="rEsuLK7hwyCycrSi-2LT-45" edge="1">
          <mxGeometry relative="1" as="geometry" />
        </mxCell>
        <mxCell id="MToOQenidi22LgT-aLaP-64" style="edgeStyle=orthogonalEdgeStyle;rounded=0;orthogonalLoop=1;jettySize=auto;html=1;entryX=0.5;entryY=0;entryDx=0;entryDy=0;entryPerimeter=0;" parent="1" source="MToOQenidi22LgT-aLaP-14" target="MToOQenidi22LgT-aLaP-63" edge="1">
          <mxGeometry relative="1" as="geometry" />
        </mxCell>
        <mxCell id="MToOQenidi22LgT-aLaP-14" value="" style="rhombus;whiteSpace=wrap;html=1;" parent="1" vertex="1">
          <mxGeometry x="240" y="270" width="80" height="80" as="geometry" />
        </mxCell>
        <mxCell id="MToOQenidi22LgT-aLaP-22" value="[Hash stimmt mit Passwort Ã¼berein]" style="text;html=1;strokeColor=none;fillColor=none;align=center;verticalAlign=middle;whiteSpace=wrap;rounded=0;labelBackgroundColor=none;" parent="1" vertex="1">
          <mxGeometry x="50" y="270" width="100" height="30" as="geometry" />
        </mxCell>
        <mxCell id="MToOQenidi22LgT-aLaP-26" value="[Anzahl kleiner 3]" style="text;html=1;strokeColor=none;fillColor=none;align=center;verticalAlign=middle;whiteSpace=wrap;rounded=0;labelBackgroundColor=none;" parent="1" vertex="1">
          <mxGeometry x="550" y="130" width="60" height="30" as="geometry" />
        </mxCell>
        <mxCell id="MToOQenidi22LgT-aLaP-29" style="edgeStyle=orthogonalEdgeStyle;rounded=0;orthogonalLoop=1;jettySize=auto;html=1;entryX=0;entryY=0.5;entryDx=0;entryDy=0;" parent="1" source="MToOQenidi22LgT-aLaP-27" target="MToOQenidi22LgT-aLaP-12" edge="1">
          <mxGeometry relative="1" as="geometry" />
        </mxCell>
        <mxCell id="MToOQenidi22LgT-aLaP-27" value="Anzahl der fehlversuche erfragen" style="rounded=1;whiteSpace=wrap;html=1;labelBackgroundColor=none;" parent="1" vertex="1">
          <mxGeometry x="289" y="150" width="110" height="50" as="geometry" />
        </mxCell>
        <mxCell id="MToOQenidi22LgT-aLaP-30" value="[Anzahl grÃ¶Ãer gleich 3]" style="text;html=1;strokeColor=none;fillColor=none;align=center;verticalAlign=middle;whiteSpace=wrap;rounded=0;labelBackgroundColor=none;" parent="1" vertex="1">
          <mxGeometry x="400" y="90" width="90" height="30" as="geometry" />
        </mxCell>
        <mxCell id="MToOQenidi22LgT-aLaP-33" value="1" style="strokeWidth=2;html=1;shape=mxgraph.flowchart.start_2;whiteSpace=wrap;" parent="1" vertex="1">
          <mxGeometry x="490" y="40" width="20" height="20" as="geometry" />
        </mxCell>
        <mxCell id="MToOQenidi22LgT-aLaP-37" value="" style="rhombus;whiteSpace=wrap;html=1;" parent="1" vertex="1">
          <mxGeometry x="405" y="470" width="80" height="80" as="geometry" />
        </mxCell>
        <mxCell id="MToOQenidi22LgT-aLaP-50" style="edgeStyle=orthogonalEdgeStyle;rounded=0;orthogonalLoop=1;jettySize=auto;html=1;entryX=1;entryY=0.5;entryDx=0;entryDy=0;" parent="1" source="MToOQenidi22LgT-aLaP-44" target="MToOQenidi22LgT-aLaP-49" edge="1">
          <mxGeometry relative="1" as="geometry" />
        </mxCell>
        <mxCell id="MToOQenidi22LgT-aLaP-44" value="Wartezeit verdoppeln" style="rounded=1;whiteSpace=wrap;html=1;" parent="1" vertex="1">
          <mxGeometry x="600" y="865" width="120" height="60" as="geometry" />
        </mxCell>
        <mxCell id="MToOQenidi22LgT-aLaP-54" style="edgeStyle=orthogonalEdgeStyle;rounded=0;orthogonalLoop=1;jettySize=auto;html=1;entryX=0.5;entryY=0;entryDx=0;entryDy=0;entryPerimeter=0;" parent="1" source="MToOQenidi22LgT-aLaP-49" target="MToOQenidi22LgT-aLaP-53" edge="1">
          <mxGeometry relative="1" as="geometry" />
        </mxCell>
        <mxCell id="MToOQenidi22LgT-aLaP-49" value="" style="rhombus;whiteSpace=wrap;html=1;" parent="1" vertex="1">
          <mxGeometry x="374" y="855" width="80" height="80" as="geometry" />
        </mxCell>
        <mxCell id="MToOQenidi22LgT-aLaP-51" value="[Anzahl kleiner 3]" style="text;html=1;strokeColor=none;fillColor=none;align=center;verticalAlign=middle;whiteSpace=wrap;rounded=0;labelBackgroundColor=none;" parent="1" vertex="1">
          <mxGeometry x="390" y="710" width="100" height="30" as="geometry" />
        </mxCell>
        <mxCell id="MToOQenidi22LgT-aLaP-52" value="[Anzahl grÃ¶Ãer gleich 3]" style="text;html=1;strokeColor=none;fillColor=none;align=center;verticalAlign=middle;whiteSpace=wrap;rounded=0;labelBackgroundColor=none;" parent="1" vertex="1">
          <mxGeometry x="560" y="790" width="100" height="30" as="geometry" />
        </mxCell>
        <mxCell id="MToOQenidi22LgT-aLaP-53" value="" style="verticalLabelPosition=bottom;verticalAlign=top;html=1;shape=mxgraph.flowchart.or;" parent="1" vertex="1">
          <mxGeometry x="399" y="985" width="30" height="30" as="geometry" />
        </mxCell>
        <mxCell id="MToOQenidi22LgT-aLaP-58" style="edgeStyle=orthogonalEdgeStyle;rounded=0;orthogonalLoop=1;jettySize=auto;html=1;entryX=0.5;entryY=0;entryDx=0;entryDy=0;" parent="1" source="MToOQenidi22LgT-aLaP-56" target="MToOQenidi22LgT-aLaP-6" edge="1">
          <mxGeometry relative="1" as="geometry" />
        </mxCell>
        <mxCell id="MToOQenidi22LgT-aLaP-56" value="" style="rhombus;whiteSpace=wrap;html=1;" parent="1" vertex="1">
          <mxGeometry x="690" y="570" width="80" height="80" as="geometry" />
        </mxCell>
        <mxCell id="MToOQenidi22LgT-aLaP-61" style="edgeStyle=orthogonalEdgeStyle;rounded=0;orthogonalLoop=1;jettySize=auto;html=1;entryX=0;entryY=0.5;entryDx=0;entryDy=0;" parent="1" source="MToOQenidi22LgT-aLaP-60" target="MToOQenidi22LgT-aLaP-56" edge="1">
          <mxGeometry relative="1" as="geometry" />
        </mxCell>
        <mxCell id="MToOQenidi22LgT-aLaP-60" value="2" style="strokeWidth=2;html=1;shape=mxgraph.flowchart.start_2;whiteSpace=wrap;" parent="1" vertex="1">
          <mxGeometry x="580" y="600" width="20" height="20" as="geometry" />
        </mxCell>
        <mxCell id="MToOQenidi22LgT-aLaP-63" value="2" style="strokeWidth=2;html=1;shape=mxgraph.flowchart.start_2;whiteSpace=wrap;" parent="1" vertex="1">
          <mxGeometry x="270" y="430" width="20" height="20" as="geometry" />
        </mxCell>
        <mxCell id="MToOQenidi22LgT-aLaP-65" value="[Hash stimmt nicht Ã¼berein]" style="text;html=1;strokeColor=none;fillColor=none;align=center;verticalAlign=middle;whiteSpace=wrap;rounded=0;labelBackgroundColor=none;" parent="1" vertex="1">
          <mxGeometry x="295" y="365" width="75" height="30" as="geometry" />
        </mxCell>
        <mxCell id="sNGj3hV3pmm6zrYYgMPP-2" value="reset retryCount to zero" style="rounded=1;whiteSpace=wrap;html=1;labelBackgroundColor=none;" parent="1" vertex="1">
          <mxGeometry x="30" y="470" width="120" height="60" as="geometry" />
        </mxCell>
        <mxCell id="sNGj3hV3pmm6zrYYgMPP-6" value="" style="edgeStyle=orthogonalEdgeStyle;rounded=0;orthogonalLoop=1;jettySize=auto;html=1;exitX=0.5;exitY=1;exitDx=0;exitDy=0;entryX=0;entryY=0.5;entryDx=0;entryDy=0;" parent="1" source="sNGj3hV3pmm6zrYYgMPP-2" target="MToOQenidi22LgT-aLaP-49" edge="1">
          <mxGeometry relative="1" as="geometry">
            <mxPoint x="100" y="480" as="sourcePoint" />
            <mxPoint x="90" y="650" as="targetPoint" />
          </mxGeometry>
        </mxCell>
        <mxCell id="sNGj3hV3pmm6zrYYgMPP-9" value="1" style="strokeWidth=2;html=1;shape=mxgraph.flowchart.start_2;whiteSpace=wrap;" parent="1" vertex="1">
          <mxGeometry x="230" y="610" width="20" height="20" as="geometry" />
        </mxCell>
        <mxCell id="sNGj3hV3pmm6zrYYgMPP-10" style="edgeStyle=orthogonalEdgeStyle;rounded=0;orthogonalLoop=1;jettySize=auto;html=1;exitX=0.5;exitY=1;exitDx=0;exitDy=0;exitPerimeter=0;entryX=0.5;entryY=0;entryDx=0;entryDy=0;" parent="1" source="sNGj3hV3pmm6zrYYgMPP-9" target="rEsuLK7hwyCycrSi-2LT-39" edge="1">
          <mxGeometry relative="1" as="geometry">
            <mxPoint x="445" y="410" as="sourcePoint" />
            <mxPoint x="450" y="610" as="targetPoint" />
            <Array as="points">
              <mxPoint x="240" y="720" />
            </Array>
          </mxGeometry>
        </mxCell>
        <mxCell id="sNGj3hV3pmm6zrYYgMPP-12" style="edgeStyle=orthogonalEdgeStyle;rounded=0;orthogonalLoop=1;jettySize=auto;html=1;exitX=0.5;exitY=1;exitDx=0;exitDy=0;entryX=0.5;entryY=0;entryDx=0;entryDy=0;entryPerimeter=0;" parent="1" source="rEsuLK7hwyCycrSi-2LT-39" target="sNGj3hV3pmm6zrYYgMPP-13" edge="1">
          <mxGeometry relative="1" as="geometry">
            <mxPoint x="424" y="945" as="sourcePoint" />
            <mxPoint x="240" y="830" as="targetPoint" />
          </mxGeometry>
        </mxCell>
        <mxCell id="sNGj3hV3pmm6zrYYgMPP-13" value="" style="verticalLabelPosition=bottom;verticalAlign=top;html=1;shape=mxgraph.flowchart.or;" parent="1" vertex="1">
          <mxGeometry x="225" y="835" width="30" height="30" as="geometry" />
        </mxCell>
        <mxCell id="sNGj3hV3pmm6zrYYgMPP-18" style="edgeStyle=orthogonalEdgeStyle;rounded=0;orthogonalLoop=1;jettySize=auto;html=1;entryX=0.5;entryY=1;entryDx=0;entryDy=0;" parent="1" source="sNGj3hV3pmm6zrYYgMPP-15" target="rEsuLK7hwyCycrSi-2LT-4" edge="1">
          <mxGeometry relative="1" as="geometry">
            <Array as="points">
              <mxPoint x="175" y="510" />
            </Array>
          </mxGeometry>
        </mxCell>
        <mxCell id="sNGj3hV3pmm6zrYYgMPP-15" value="login gescheitert" style="rounded=1;whiteSpace=wrap;html=1;labelBackgroundColor=none;" parent="1" vertex="1">
          <mxGeometry x="210" y="480" width="120" height="60" as="geometry" />
        </mxCell>
        <mxCell id="sNGj3hV3pmm6zrYYgMPP-17" value="" style="endArrow=classic;html=1;rounded=0;exitX=0;exitY=0.5;exitDx=0;exitDy=0;entryX=1;entryY=0.5;entryDx=0;entryDy=0;" parent="1" source="MToOQenidi22LgT-aLaP-37" target="sNGj3hV3pmm6zrYYgMPP-15" edge="1">
          <mxGeometry width="50" height="50" relative="1" as="geometry">
            <mxPoint x="640" y="640" as="sourcePoint" />
            <mxPoint x="320" y="510" as="targetPoint" />
          </mxGeometry>
        </mxCell>
      </root>
    </mxGraphModel>
  </diagram>
</mxfile>
